<?xml version="1.0" standalone="no"?>
<!DOCTYPE svg PUBLIC "-//W3C//DTD SVG 20010904//EN"
 "http://www.w3.org/TR/2001/REC-SVG-20010904/DTD/svg10.dtd">
<svg version="1.0" xmlns="http://www.w3.org/2000/svg"
 width="1707.000000pt" height="282.000000pt" viewBox="0 0 1707.000000 282.000000"
 preserveAspectRatio="xMidYMid meet">

<g transform="translate(0.000000,282.000000) scale(0.100000,-0.100000)"
fill="#000000" stroke="none">
<path d="M0 1410 l0 -1410 8535 0 8535 0 0 1410 0 1410 -8535 0 -8535 0 0
-1410z m5675 1315 c171 -36 313 -100 479 -216 168 -116 208 -139 244 -139 31
0 35 -4 73 -82 47 -98 47 -133 -4 -212 -18 -28 -31 -62 -31 -80 0 -21 27 -76
79 -164 44 -76 74 -136 69 -141 -5 -5 -61 -52 -124 -106 -63 -54 -120 -109
-126 -124 -17 -36 -11 -417 6 -413 6 1 25 12 41 24 36 27 45 19 25 -21 -24
-45 -20 -46 27 -9 l42 33 -37 -43 c-73 -87 -107 -110 -328 -225 -300 -156
-360 -185 -360 -178 0 14 68 247 110 376 56 172 57 177 84 308 30 142 104 297
279 584 50 83 117 249 155 385 13 45 14 60 4 70 -8 8 -15 8 -21 2 -12 -11
-124 -206 -211 -364 -35 -63 -120 -214 -189 -335 l-126 -220 -6 -160 c-7 -175
-24 -256 -111 -524 l-43 -134 -70 -24 c-38 -12 -73 -23 -77 -23 -4 0 -8 34 -8
75 0 82 0 82 69 76 33 -3 61 26 60 63 0 31 0 31 -10 6 -12 -29 -38 -60 -51
-60 -5 0 -7 4 -4 9 4 5 -9 4 -28 -1 -19 -6 -46 -8 -60 -4 -14 3 -28 5 -30 4
-7 -5 -46 35 -45 46 0 6 3 6 6 -1 7 -20 23 -15 17 4 -5 15 -4 15 4 3 6 -8 9
-17 7 -20 -2 -3 10 -5 26 -6 24 -1 27 1 18 17 -5 11 -17 19 -27 19 -12 0 -13
3 -5 8 9 6 7 12 -7 22 -19 14 -19 14 2 37 12 13 29 23 39 23 19 0 21 60 33
878 5 345 5 352 -14 352 -11 0 -20 5 -20 10 0 6 9 10 20 10 20 0 20 6 18 300
l-3 300 35 0 c19 0 66 -7 105 -15z m1692 -97 c11 -13 23 -36 27 -51 7 -31 -51
-331 -108 -557 -19 -74 -31 -138 -27 -143 4 -4 52 2 107 13 90 19 204 24 204
9 0 -17 -31 -223 -34 -227 -5 -4 -990 -386 -1025 -397 -24 -7 -24 -7 -18 43 7
57 50 173 117 317 l47 100 84 23 c46 12 102 22 124 22 22 0 74 12 115 26 l76
26 -2 52 c-1 34 7 77 26 133 30 85 63 239 55 253 -3 4 6 38 19 76 39 110 56
171 56 198 0 14 7 41 17 60 14 30 22 36 57 39 23 2 46 4 52 5 6 1 20 -8 31
-20z m-2580 -479 c21 -41 45 -94 53 -119 7 -25 19 -52 25 -60 7 -8 32 -53 57
-100 26 -47 57 -105 70 -130 49 -91 130 -235 136 -240 2 -3 2 7 -2 23 -9 38
-1 34 28 -14 20 -34 22 -45 13 -60 -9 -14 -8 -22 1 -31 10 -10 15 -10 22 2 12
19 12 21 15 -145 2 -113 7 -148 38 -265 19 -74 54 -189 76 -255 46 -133 48
-147 25 -138 -9 3 -14 13 -11 24 3 11 1 21 -3 24 -5 3 -11 -5 -13 -17 -3 -15
-5 -10 -6 14 0 20 -6 40 -11 43 -7 4 -8 -13 -4 -52 7 -60 13 -77 21 -55 3 6 9
12 14 12 5 0 2 -12 -7 -26 -13 -19 -19 -22 -25 -12 -4 7 -102 60 -218 118
-115 57 -208 106 -206 109 3 2 0 10 -6 18 -6 7 -8 13 -4 13 17 0 407 -205 416
-219 25 -40 -25 146 -111 409 -28 85 -62 211 -76 280 -32 157 -77 254 -261
560 -56 92 -86 156 -114 243 -43 130 -44 138 -26 156 16 16 41 -13 94 -110z
m3573 -206 c0 -5 -7 -47 -16 -95 l-16 -88 -294 0 c-286 0 -294 -1 -304 -21 -6
-11 -10 -30 -8 -42 3 -22 4 -22 260 -25 l257 -2 25 -31 c14 -17 26 -40 26 -51
0 -41 -52 -293 -66 -320 -8 -15 -32 -37 -54 -48 -37 -19 -58 -20 -395 -20
-277 0 -355 3 -355 13 0 6 7 51 16 100 l16 87 294 0 c280 0 294 1 304 19 5 11
10 29 10 40 0 21 -4 21 -256 21 l-256 0 -29 29 c-48 48 -36 131 18 131 4 0 6
-22 5 -50 -4 -46 -2 -51 23 -60 15 -6 130 -10 269 -10 228 0 244 -1 260 -19
22 -24 14 -89 -14 -123 -18 -23 -21 -23 -303 -26 l-285 -3 -9 -49 -10 -50 333
0 c407 0 371 -16 408 174 31 156 32 182 7 196 -12 6 -114 10 -263 10 -288 0
-295 2 -284 78 3 26 15 56 28 69 21 23 22 23 303 23 l282 0 10 55 10 55 -324
0 c-277 0 -328 -2 -355 -16 -25 -13 -32 -14 -39 -2 -13 21 -11 26 19 42 22 13
88 15 390 16 199 0 362 -3 362 -7z m864 -65 c-8 -40 -16 -83 -19 -95 l-5 -23
-289 0 c-314 0 -305 2 -317 -58 l-6 -32 241 0 241 0 -5 -22 c-3 -13 -11 -54
-18 -93 l-12 -70 -242 -3 c-240 -2 -241 -2 -247 -25 -16 -61 -34 -57 289 -57
230 0 295 -3 295 -12 -1 -7 -9 -51 -18 -98 l-18 -85 -349 -3 c-247 -2 -358 1
-378 9 -34 14 -57 45 -57 78 0 35 99 550 112 584 6 16 27 39 47 53 l36 24 366
0 366 0 -13 -72z m862 55 c-2 -10 -10 -45 -16 -78 -6 -33 -14 -68 -16 -77 -5
-17 -28 -18 -293 -18 -219 0 -291 -3 -299 -12 -9 -11 -72 -307 -72 -338 0 -7
100 -10 295 -10 230 0 295 -3 295 -12 -1 -7 -9 -51 -18 -98 l-17 -85 -355 -3
c-338 -2 -357 -1 -387 18 -18 11 -35 31 -39 47 -9 33 90 562 115 612 33 70 42
71 449 71 341 0 363 -1 358 -17z m763 2 c57 -29 57 -43 -4 -360 -36 -186 -62
-299 -74 -315 -40 -57 -58 -60 -394 -60 -255 0 -313 3 -337 15 -34 18 -50 43
-50 81 0 44 99 547 115 582 8 17 29 41 47 52 31 19 51 20 351 20 259 0 323 -3
346 -15z m515 -216 c76 -126 142 -226 146 -222 3 4 21 87 39 183 18 96 37 196
43 223 l10 47 105 0 c95 0 104 -2 100 -17 -3 -10 -36 -179 -73 -375 l-68 -358
-107 0 -108 0 -143 230 c-106 170 -145 225 -150 212 -4 -9 -24 -102 -43 -207
-20 -104 -39 -200 -42 -212 -5 -22 -10 -23 -110 -23 -95 0 -104 2 -99 18 2 9
35 178 72 375 l68 357 111 0 110 -1 139 -230z m1285 205 c24 -20 31 -34 31
-62 0 -60 -100 -564 -118 -596 -9 -16 -33 -37 -52 -47 -32 -18 -63 -19 -392
-19 -286 0 -358 3 -358 13 0 12 124 669 135 715 l5 22 359 0 359 0 31 -26z
m1561 19 c0 -5 -7 -47 -16 -95 l-16 -88 -294 0 -294 0 -10 -22 c-5 -13 -21
-86 -35 -163 -14 -77 -28 -148 -31 -157 -5 -17 8 -18 186 -18 218 0 194 -12
220 114 l16 81 102 3 c121 3 114 20 73 -178 -46 -229 -32 -222 -458 -218 -295
3 -312 4 -333 23 -12 11 -26 30 -31 42 -10 27 96 587 117 621 8 13 29 32 47
42 30 19 53 20 395 20 199 0 362 -3 362 -7z m860 -30 c-5 -21 -13 -64 -20 -95
l-11 -58 -287 0 c-158 0 -292 -4 -299 -8 -6 -4 -14 -24 -18 -45 l-7 -37 242 0
c225 0 241 -1 236 -17 -2 -10 -10 -45 -16 -78 -6 -33 -14 -68 -16 -77 -5 -17
-25 -18 -244 -18 l-238 0 -6 -22 c-16 -62 -34 -58 289 -58 162 0 295 -3 294
-7 0 -5 -8 -48 -18 -98 l-17 -90 -350 -3 c-246 -2 -357 1 -377 9 -36 15 -57
46 -57 82 0 47 99 549 115 585 8 17 29 41 47 52 31 19 51 20 399 20 l367 0 -8
-37z m554 20 c9 -31 166 -715 166 -724 0 -5 -51 -9 -114 -9 l-115 0 -12 55
-12 56 -136 -3 -135 -3 -31 -52 -30 -53 -118 0 c-65 0 -117 4 -115 8 2 4 99
173 217 375 l214 367 108 0 c94 0 108 -2 113 -17z m1100 6 c14 -7 32 -26 40
-43 13 -28 12 -44 -14 -180 -25 -125 -34 -154 -56 -177 -21 -22 -24 -30 -15
-47 18 -34 13 -93 -25 -269 -4 -22 -9 -23 -110 -23 -96 0 -105 2 -100 18 15
54 36 183 31 192 -10 15 -347 13 -367 -2 -10 -8 -24 -50 -35 -108 l-19 -95
-102 -3 c-76 -2 -102 0 -102 10 0 31 123 646 133 668 7 13 27 35 46 47 34 23
37 23 352 23 217 0 326 -4 343 -11z m-11736 -154 c-3 -3 -9 2 -12 12 -6 14 -5
15 5 6 7 -7 10 -15 7 -18z m92 -155 c6 -11 8 -20 6 -20 -3 0 -10 9 -16 20 -6
11 -8 20 -6 20 3 0 10 -9 16 -20z m-1070 -182 c195 -72 362 -135 370 -140 13
-8 13 -9 0 -5 -72 21 -890 323 -890 329 0 3 37 -7 83 -23 45 -17 242 -89 437
-161z m521 15 c33 -38 45 -71 30 -86 -6 -6 -8 -30 -5 -56 4 -38 0 -31 -21 38
-14 46 -41 117 -60 159 -43 93 -44 104 -3 32 17 -30 43 -69 59 -87z m579 118
c6 -11 6 -22 1 -25 -5 -3 -11 5 -13 19 -6 30 -2 32 12 6z m-3376 -58 c-5 -10
-9 -50 -9 -90 l0 -72 -192 -3 c-177 -3 -194 -5 -212 -23 -14 -15 -28 -71 -55
-222 -20 -112 -36 -212 -36 -223 0 -35 31 -40 243 -40 232 0 240 3 257 75 21
90 30 85 -145 85 -107 0 -155 3 -155 11 0 6 7 51 16 100 l17 89 254 0 255 0
-6 -27 c-3 -16 -22 -118 -42 -228 -20 -110 -43 -212 -51 -226 -9 -15 -30 -35
-47 -45 -29 -18 -56 -19 -393 -19 l-361 0 -26 24 c-19 18 -26 35 -26 62 0 61
117 693 134 727 30 58 45 61 330 62 242 0 258 -1 250 -17z m5416 -50 c0 -5 -9
-41 -19 -80 -11 -40 -16 -73 -13 -73 4 0 1 -4 -7 -9 -23 -15 -165 29 -175 54
-10 26 29 56 109 85 84 30 105 35 105 23z m-1771 -70 c7 -15 17 -77 22 -137 5
-61 16 -151 24 -201 9 -49 19 -109 22 -132 11 -83 -14 -42 -57 95 -37 114 -45
153 -48 235 -6 147 9 202 37 140z m1579 -153 c23 -11 23 -12 5 -32 -62 -69
-212 -163 -221 -139 -1 5 13 44 33 87 36 78 41 120 21 166 -16 36 29 24 84
-23 30 -25 65 -52 78 -59z m-2498 30 c8 -5 11 -10 5 -10 -5 0 -17 5 -25 10 -8
5 -10 10 -5 10 6 0 17 -5 25 -10z m2660 0 c0 -5 -4 -10 -9 -10 -6 0 -13 5 -16
10 -3 6 1 10 9 10 9 0 16 -4 16 -10z m-3005 -20 c-9 -15 -81 -50 -102 -50 -10
1 9 14 42 30 71 34 68 32 60 20z m2488 -20 c-15 -26 -19 -28 -27 -13 -6 12 -4
20 10 30 29 21 36 15 17 -17z m-2522 -47 c13 -16 12 -17 -3 -4 -10 7 -18 15
-18 17 0 8 8 3 21 -13z m-171 -19 c0 -8 -4 -14 -10 -14 -5 0 -10 9 -10 21 0
11 5 17 10 14 6 -3 10 -13 10 -21z m3263 -59 c53 -27 97 -53 97 -58 0 -5 -3
-7 -7 -5 -142 67 -253 125 -253 131 0 9 39 -7 163 -68z m-3022 18 c13 -16 12
-17 -3 -4 -10 7 -18 15 -18 17 0 8 8 3 21 -13z m133 -93 c37 -14 56 -13 56 4
0 17 27 29 35 16 4 -6 35 -10 69 -10 100 0 122 -8 191 -70 35 -32 91 -77 125
-100 34 -23 59 -44 57 -46 -3 -3 -50 15 -106 41 -56 25 -112 45 -126 45 -14 0
-24 5 -22 11 2 12 -7 15 -193 73 -92 28 -124 43 -155 72 l-40 36 41 -31 c23
-17 53 -35 68 -41z m2804 -4 l13 -36 76 0 c60 0 83 -4 110 -21 l35 -22 27 21
c28 20 29 20 1390 15 l1361 -6 -6 -36 c-4 -20 -12 -54 -18 -76 l-12 -40 -1516
-3 -1517 -2 -25 33 c-15 19 -26 42 -26 53 -1 10 -8 -1 -17 -26 -21 -63 -26
-63 -19 0 22 212 31 233 95 201 25 -13 40 -30 49 -55z m3242 -8 c13 -35 27
-74 32 -87 8 -22 13 -19 76 63 63 81 69 86 104 86 21 0 38 -5 38 -11 0 -8 -34
-166 -55 -256 -4 -19 -12 -23 -45 -23 -45 0 -44 -5 -19 90 14 57 12 55 -47
-19 -30 -39 -61 -71 -69 -71 -7 0 -23 28 -36 64 -13 36 -26 63 -30 61 -3 -3
-12 -32 -18 -65 l-12 -60 -40 0 c-21 0 -39 3 -39 8 0 4 14 68 30 142 17 74 30
136 30 137 0 2 17 3 39 3 38 0 39 -1 61 -62z m668 49 c8 -9 4 -43 -13 -122
-13 -61 -24 -113 -25 -117 0 -4 -7 -14 -16 -22 -23 -24 -322 -24 -331 0 -8 22
37 236 55 257 13 15 35 17 167 17 112 0 155 -3 163 -13z m442 -4 c-1 -41 -19
-51 -101 -52 l-46 -1 -24 -110 -23 -110 -38 0 c-21 0 -38 4 -38 10 0 5 9 53
21 105 12 53 19 98 17 101 -3 2 -32 7 -66 10 -34 4 -62 10 -62 13 0 3 3 16 6
29 6 22 8 22 180 22 159 0 174 -1 174 -17z m398 4 c8 -9 7 -30 -2 -73 -8 -32
-19 -85 -26 -116 -18 -88 -17 -88 -196 -88 -132 0 -156 2 -161 16 -9 23 37
236 55 257 13 15 35 17 167 17 113 0 155 -3 163 -13z m472 1 c0 -22 -56 -268
-62 -274 -3 -3 -21 -4 -40 -2 l-34 3 30 143 30 142 38 0 c24 0 38 -5 38 -12z
m242 -92 c37 -55 68 -97 69 -95 0 2 11 47 22 99 l22 95 38 3 c25 2 37 -1 37
-10 -1 -7 -13 -71 -28 -143 l-28 -130 -45 -3 -44 -3 -71 100 -71 100 -22 -99
-22 -100 -40 0 c-34 0 -40 3 -35 18 2 9 17 75 32 145 l27 128 46 -3 c45 -3 45
-3 113 -102z m616 77 l-3 -28 -129 -3 c-128 -3 -156 -10 -156 -38 0 -11 23
-14 110 -14 l110 0 -6 -27 c-4 -16 -9 -31 -11 -35 -2 -5 -53 -8 -112 -8 l-108
0 -12 -55 -12 -55 -41 0 c-28 0 -39 4 -35 13 2 6 15 62 27 122 34 166 19 155
216 155 l165 0 -3 -27z m391 14 c15 -19 -34 -247 -57 -264 -11 -9 -62 -13
-169 -13 -132 0 -155 2 -160 16 -8 21 35 222 53 252 14 21 20 22 168 22 117 0
156 -3 165 -13z m441 -11 c0 -14 -5 -28 -11 -32 -7 -4 -71 -10 -142 -13 l-131
-6 -14 -68 c-8 -37 -12 -70 -9 -73 9 -10 133 -17 160 -10 19 4 27 15 34 43 8
35 12 38 46 41 42 4 44 -1 26 -76 -6 -26 -19 -53 -27 -59 -11 -9 -62 -13 -169
-13 -129 0 -155 2 -160 15 -7 21 35 224 53 253 14 21 19 22 179 22 l165 0 0
-24z m403 -41 c-2 -41 -8 -67 -22 -86 -13 -17 -16 -30 -10 -36 7 -7 6 -26 -2
-57 -11 -44 -13 -46 -49 -46 l-37 0 1 43 1 42 -50 3 c-27 2 -69 1 -92 -3 -39
-6 -42 -8 -48 -45 -7 -39 -8 -40 -46 -40 -21 0 -39 4 -39 8 0 35 55 251 68
265 14 16 33 17 171 15 l156 -3 -2 -60z m346 -67 c19 -73 36 -139 39 -145 3
-9 -9 -13 -41 -13 -37 0 -47 4 -52 20 -6 17 -15 20 -74 20 -58 0 -71 -3 -82
-21 -11 -16 -23 -20 -56 -17 l-43 3 93 142 92 143 45 0 45 0 34 -132z m508
117 c8 -21 -15 -135 -33 -162 -14 -22 -21 -23 -143 -23 l-128 0 -9 -42 c-8
-41 -11 -43 -46 -46 -23 -2 -38 1 -38 8 0 5 11 62 25 126 14 64 25 117 25 119
0 2 7 11 16 19 23 23 322 24 331 1z m150 -7 c-3 -13 -8 -38 -12 -56 l-7 -33
98 3 98 3 11 50 c10 48 11 50 48 53 25 2 37 -1 37 -10 0 -7 -13 -71 -28 -143
l-28 -130 -38 -3 -38 -3 7 56 7 56 -93 -3 -94 -3 -14 -52 c-14 -53 -14 -53
-53 -53 -33 0 -38 3 -34 18 3 9 17 74 32 145 l27 127 40 0 c36 0 39 -2 34 -22z
m433 17 c0 -8 -51 -248 -56 -267 -4 -13 -16 -18 -46 -18 -28 0 -39 4 -35 13 2
6 17 72 32 145 l28 132 39 0 c21 0 38 -2 38 -5z m430 -12 c0 -40 -14 -45 -151
-51 l-134 -7 -16 -70 c-20 -86 -26 -82 131 -84 63 -1 116 -4 118 -6 3 -2 2
-16 -2 -30 l-6 -25 -166 0 c-144 0 -165 2 -171 17 -9 23 36 235 55 256 13 15
35 17 179 17 149 0 163 -2 163 -17z m400 0 c-1 -42 -14 -47 -152 -52 -115 -5
-133 -8 -136 -23 -3 -16 10 -18 119 -20 144 -4 147 -6 129 -91 -18 -88 -16
-87 -207 -87 l-165 0 7 27 c4 16 8 29 9 30 1 1 55 3 120 4 138 2 156 5 156 30
0 18 -9 19 -119 19 -144 0 -148 3 -130 87 20 94 17 93 206 93 149 0 163 -2
163 -17z m-9335 -42 c3 -5 1 -12 -4 -15 -5 -3 -11 1 -15 9 -6 16 9 21 19 6z
m-937 -125 c-19 -14 -13 -60 7 -52 13 4 35 -12 35 -25 0 -4 -23 -12 -50 -18
-57 -12 -200 -65 -464 -170 -98 -40 -181 -69 -184 -66 -3 3 -3 7 -1 9 7 7 663
336 669 336 3 0 -3 -6 -12 -14z m416 -28 c-70 -116 -138 -208 -155 -208 -5 0
11 25 37 56 25 31 62 81 81 110 20 30 38 54 40 54 2 0 1 -6 -3 -12z m48 -45
c-6 -12 -3 -47 9 -103 9 -47 17 -79 18 -72 1 14 51 92 51 80 0 -4 -11 -37 -25
-73 -28 -75 -20 -76 30 -2 19 28 35 47 35 41 0 -6 -13 -29 -29 -51 -21 -29
-26 -44 -19 -51 12 -12 4 -42 -12 -42 -6 0 -8 5 -5 10 3 6 2 10 -4 10 -17 0
-71 -77 -71 -101 0 -19 2 -21 10 -9 18 29 20 1 6 -106 l-13 -109 -3 70 -3 70
-8 -88 c-4 -49 -9 -91 -12 -93 -2 -3 -61 -3 -130 -2 l-127 3 46 58 c26 32 45
60 42 62 -2 2 -26 -6 -53 -19 -94 -45 -91 -45 -98 31 -4 38 -7 87 -7 110 0 23
-4 45 -10 48 -5 3 -10 10 -10 14 0 11 153 106 166 103 11 -2 216 208 223 229
1 5 5 8 8 5 2 -2 0 -13 -5 -23z m-2568 -80 c21 -29 41 -53 44 -53 4 0 18 -16
31 -36 14 -20 65 -65 114 -100 50 -35 85 -64 80 -64 -42 0 -303 235 -303 273
0 9 -4 19 -10 22 -5 3 -10 11 -10 18 0 14 5 8 54 -60z m315 54 c-12 -10 -99
-55 -99 -51 0 7 75 53 89 53 8 1 12 0 10 -2z m2431 -42 c0 -8 -4 -17 -10 -20
-6 -4 -10 5 -10 20 0 15 4 24 10 20 6 -3 10 -12 10 -20z m-1614 -20 c15 -14
21 -25 14 -25 -15 0 -50 29 -50 42 0 13 7 10 36 -17z m-1396 -5 c0 -5 -5 -10
-11 -10 -5 0 -7 5 -4 10 3 6 8 10 11 10 2 0 4 -4 4 -10z m110 -180 c0 -5 -4
-10 -10 -10 -5 0 -10 5 -10 10 0 6 5 10 10 10 6 0 10 -4 10 -10z m140 -200 c0
-5 -4 -10 -10 -10 -5 0 -10 5 -10 10 0 6 5 10 10 10 6 0 10 -4 10 -10z m2647
-52 c-3 -8 -6 -5 -6 6 -1 11 2 17 5 13 3 -3 4 -12 1 -19z m-2419 -90 c9 -21
-28 -4 -43 20 -10 15 -29 40 -44 57 -14 16 -1 7 29 -20 30 -27 57 -53 58 -57z
m2086 70 c-22 -24 -140 -81 -157 -75 -7 2 11 11 38 21 28 9 68 30 90 46 49 35
54 36 29 8z m295 -50 c-18 -15 -38 -28 -43 -28 -6 0 6 11 27 25 20 14 37 33
38 43 0 13 2 14 6 3 4 -9 -7 -26 -28 -43z m-1671 21 c14 -6 22 -16 21 -31 0
-20 -1 -21 -8 -5 -4 10 -25 27 -46 38 -38 18 -17 17 33 -2z m309 -36 c-3 -10
-5 -4 -5 12 0 17 2 24 5 18 2 -7 2 -21 0 -30z m-17 7 c0 -17 -7 -20 -37 -20
l-38 1 35 19 c19 11 36 19 38 20 1 0 2 -9 2 -20z m297 -12 c-3 -7 -5 -2 -5 12
0 14 2 19 5 13 2 -7 2 -19 0 -25z m1110 -4 c-3 -3 -12 -4 -19 -1 -8 3 -5 6 6
6 11 1 17 -2 13 -5z"/>
<path d="M6260 2315 c12 -15 30 -12 30 6 0 5 -10 9 -21 9 -18 0 -19 -2 -9 -15z"/>
<path d="M6120 2073 c0 -7 7 -13 15 -13 8 0 15 6 15 13 0 8 -7 14 -15 14 -8 0
-15 -6 -15 -14z"/>
<path d="M6283 1938 c-32 -38 -171 -362 -178 -411 -1 -12 -19 -70 -39 -129
-20 -59 -36 -114 -36 -122 0 -34 32 -12 117 82 48 53 111 120 140 147 41 40
51 55 47 75 -2 14 -8 99 -14 189 -10 163 -17 194 -37 169z"/>
<path d="M5973 1807 c3 -25 21 -26 25 -2 2 15 1 17 -6 6 -8 -11 -11 -11 -16 0
-3 9 -5 7 -3 -4z"/>
<path d="M5796 1511 c-3 -5 1 -14 8 -20 16 -13 32 2 21 19 -8 12 -22 13 -29 1z"/>
<path d="M5651 1413 c-7 -16 -17 -86 -22 -158 -7 -115 -23 -233 -45 -332 -5
-25 -3 -33 8 -33 10 0 29 48 61 158 41 137 47 168 46 242 -2 136 -21 183 -48
123z"/>
<path d="M5473 863 c-21 -8 -15 -18 12 -19 15 -1 24 3 22 9 -4 13 -18 17 -34
10z"/>
<path d="M5540 857 c0 -7 9 -13 20 -14 24 -2 27 12 4 21 -22 8 -24 8 -24 -7z"/>
<path d="M5540 775 c0 -13 4 -14 20 -5 11 6 20 13 20 15 0 3 -9 5 -20 5 -11 0
-20 -7 -20 -15z"/>
<path d="M5142 1490 c0 -14 2 -19 5 -12 2 6 2 18 0 25 -3 6 -5 1 -5 -13z"/>
<path d="M5202 1075 c-1 -33 3 -69 7 -79 15 -39 19 17 5 80 l-12 59 0 -60z"/>
<path d="M5182 1095 c0 -16 2 -22 5 -12 2 9 2 23 0 30 -3 6 -5 -1 -5 -18z"/>
<path d="M5230 974 c0 -16 5 -36 11 -44 7 -11 8 -4 3 25 -8 50 -14 58 -14 19z"/>
<path d="M8515 1901 c-43 -18 -52 -46 -104 -312 -28 -147 -51 -278 -51 -291 0
-48 3 -48 361 -48 l336 0 7 38 c3 20 6 43 6 50 0 9 -61 12 -270 12 -261 0
-271 1 -291 21 -18 18 -20 28 -14 67 12 90 -13 82 255 82 266 0 242 -7 256 73
l6 37 -242 0 c-201 0 -241 2 -237 14 3 7 9 35 13 62 4 29 16 57 30 71 23 23
24 23 303 23 l279 0 11 50 c6 28 11 53 11 55 0 9 -645 4 -665 -4z"/>
<path d="M9363 1900 c-12 -5 -28 -19 -37 -32 -14 -22 -116 -524 -116 -571 0
-46 5 -47 361 -47 l336 0 7 38 c3 20 6 43 6 50 0 9 -61 12 -270 12 -257 0
-271 1 -290 20 -11 11 -20 26 -20 33 0 7 16 91 35 187 28 141 39 178 56 193
19 15 49 17 299 17 310 0 281 -7 296 73 l6 37 -323 -1 c-178 0 -334 -4 -346
-9z"/>
<path d="M10195 1901 c-44 -19 -53 -44 -105 -311 -56 -293 -59 -318 -39 -331
8 -5 156 -9 330 -9 300 0 316 1 336 20 27 24 22 6 84 329 l52 274 -22 19 c-21
17 -46 18 -320 17 -163 0 -305 -4 -316 -8z m500 -115 c24 -17 23 -41 -14 -232
-43 -217 -26 -204 -274 -204 -213 0 -237 6 -236 58 0 15 15 101 33 191 27 135
37 168 56 183 20 16 43 18 219 18 150 0 202 -3 216 -14z"/>
<path d="M10293 1752 c-10 -6 -73 -296 -73 -337 0 -13 26 -15 190 -15 188 0
190 0 195 23 18 73 62 323 58 330 -6 9 -354 9 -370 -1z"/>
<path d="M10987 1602 c-33 -169 -61 -317 -64 -329 -5 -22 -2 -23 51 -23 49 0
56 2 61 23 3 12 26 130 50 262 25 132 47 244 49 249 1 5 78 -113 171 -262
l169 -272 78 0 c43 0 78 4 78 9 0 6 27 151 60 323 33 172 60 316 60 320 0 5
-24 8 -54 8 -51 0 -55 -2 -60 -27 -3 -16 -26 -138 -52 -273 -25 -135 -48 -247
-51 -250 -2 -2 -7 1 -11 7 -4 7 -79 131 -167 277 l-160 265 -75 1 -75 0 -58
-308z"/>
<path d="M11940 1908 c0 -2 -29 -150 -64 -330 l-63 -328 337 0 337 0 21 23
c17 18 32 79 78 312 l56 289 -22 18 c-20 16 -50 18 -351 18 -181 0 -329 -1
-329 -2z m542 -125 c10 -9 18 -27 18 -39 0 -56 -64 -346 -80 -367 -18 -21 -25
-22 -244 -25 -212 -3 -226 -2 -226 15 0 10 18 110 40 223 22 113 40 206 40
208 0 1 98 2 217 2 187 0 219 -2 235 -17z"/>
<path d="M12064 1723 c-4 -21 -19 -101 -33 -178 l-27 -140 185 -3 c110 -1 188
1 194 7 10 10 67 289 67 329 l0 22 -190 0 -189 0 -7 -37z"/>
<path d="M13479 1895 c-14 -8 -31 -27 -37 -42 -6 -15 -34 -149 -62 -296 -38
-204 -48 -272 -40 -287 10 -19 23 -20 329 -20 391 0 359 -13 391 157 11 65 23
125 26 133 3 12 -6 14 -55 12 l-59 -4 -6 -45 c-20 -151 -24 -153 -268 -153
-206 0 -228 6 -228 61 0 16 14 100 31 187 23 116 36 163 52 180 20 22 23 22
302 22 l282 0 10 55 10 55 -326 0 c-262 -1 -331 -4 -352 -15z"/>
<path d="M14355 1901 c-44 -19 -53 -44 -108 -326 -45 -232 -52 -283 -42 -300
12 -19 25 -20 346 -23 183 -1 336 1 340 5 4 5 10 27 14 51 l7 42 -269 0 c-320
0 -319 0 -309 86 11 91 -12 84 256 84 266 0 242 -7 256 73 l6 37 -242 0 c-201
0 -241 2 -237 14 3 7 9 35 13 62 4 29 16 57 30 71 23 23 24 23 303 23 l279 0
11 50 c6 28 11 53 11 55 0 9 -645 4 -665 -4z"/>
<path d="M15255 1603 c-99 -170 -185 -318 -193 -330 -14 -23 -14 -23 51 -23
l65 0 31 50 31 50 170 0 c129 0 170 -3 170 -12 0 -7 5 -30 11 -50 l10 -38 64
0 c36 0 65 4 65 8 0 9 -138 607 -146 635 -4 14 -18 17 -78 17 l-73 0 -178
-307z m259 12 c15 -66 30 -128 32 -137 5 -16 -5 -18 -119 -18 l-125 0 86 150
c50 87 89 145 93 137 4 -6 19 -66 33 -132z"/>
<path d="M15417 1568 l-36 -63 51 -3 c28 -2 52 -1 54 1 6 5 -17 110 -26 120
-4 5 -23 -20 -43 -55z"/>
<path d="M16059 1895 c-15 -8 -30 -22 -34 -32 -4 -10 -33 -152 -64 -315 l-58
-298 57 0 57 0 13 73 c16 90 26 112 57 126 15 7 96 11 213 11 177 0 191 -1
210 -20 23 -23 24 -25 5 -110 -8 -36 -14 -68 -15 -72 0 -5 25 -8 55 -8 61 0
55 -9 78 110 17 88 12 118 -19 126 -32 8 -30 47 3 52 42 6 60 45 88 194 l27
142 -22 18 c-20 16 -49 18 -324 18 -241 -1 -306 -4 -327 -15z m513 -112 c21
-19 23 -51 7 -124 -19 -89 -18 -89 -253 -89 -255 0 -248 -4 -225 127 18 101
21 103 257 103 168 0 198 -2 214 -17z"/>
<path d="M16160 1735 c-5 -13 -12 -47 -16 -75 l-7 -50 186 0 c130 0 188 3 193
12 11 17 32 126 26 133 -3 3 -88 5 -189 5 l-183 0 -10 -25z"/>
<path d="M10727 1013 c-10 -15 -30 -134 -24 -139 9 -10 133 -17 160 -10 22 5
27 15 37 64 6 31 14 65 16 75 5 15 -4 17 -90 17 -52 0 -97 -3 -99 -7z"/>
<path d="M11567 1013 c-9 -14 -30 -133 -25 -139 9 -8 135 -17 160 -11 21 6 27
16 37 64 7 32 15 66 17 76 5 15 -4 17 -90 17 -52 0 -97 -3 -99 -7z"/>
<path d="M13287 1013 c-3 -5 -11 -37 -18 -71 -15 -77 -11 -82 76 -82 96 0 102
4 115 69 6 31 14 64 16 74 5 15 -4 17 -90 17 -52 0 -97 -3 -99 -7z"/>
<path d="M14127 993 c-3 -16 -3 -31 0 -35 2 -5 44 -8 93 -8 92 0 100 4 100 51
0 17 -8 19 -94 19 l-94 0 -5 -27z"/>
<path d="M14622 944 l-22 -34 35 0 c33 0 35 1 29 28 -10 42 -17 44 -42 6z"/>
<path d="M14976 998 c-12 -47 -10 -48 82 -48 94 0 112 8 112 47 0 22 -3 23
-94 23 -89 0 -94 -1 -100 -22z"/>
<path d="M6585 589 c-59 -45 -67 -57 -12 -18 42 29 65 50 55 49 -2 0 -21 -14
-43 -31z"/>
<path d="M6761 364 c0 -11 3 -14 6 -6 3 7 2 16 -1 19 -3 4 -6 -2 -5 -13z"/>
</g>
</svg>
