<?xml version="1.0" encoding="utf-8"?>
<!-- Generator: Adobe Illustrator 24.3.0, SVG Export Plug-In . SVG Version: 6.00 Build 0)  -->
<svg version="1.1" id="Layer_1" xmlns="http://www.w3.org/2000/svg" xmlns:xlink="http://www.w3.org/1999/xlink" x="0px" y="0px"
	 viewBox="0 0 512 512" style="enable-background:new 0 0 512 512;" xml:space="preserve">
<style type="text/css">
	.st0{fill:#E50011;}
	.st1{fill:#FFFFFF;}
</style>
<g id="XMLID_1_">
	<path id="XMLID_35_" class="st0" d="M0.28,193.16H512v125.4c0,0.14,0,0.28-0.14,0.28H0l0.14-0.28V193.58
		C0.14,193.3,0.14,193.16,0.28,193.16"/>
	<path id="XMLID_60_" class="st1" d="M123.16,240.57c1.12,2.1,4.21,3.51,7.01,3.79c3.23,0.28,6.59-0.7,9.4-1.4v-6.45
		c-2.24,0.14-3.51-0.84-3.93-2.81c-0.56-3.93,0.42-11.22,0-15.15h2.95c-0.14-2.38,0.14-5.33-0.14-7.43c-0.42,0-1.82,0.14-2.67-0.14
		c0-2.24,0.14-5.19-0.14-6.87h-14.03v7.01h-2.81v7.43h3.23C123.02,225.7,120.64,235.66,123.16,240.57 M68.45,237.62l0.14,0.28
		c2.24,4.07,8.28,6.17,13.75,6.45c6.17,0.42,12.06-1.82,15.71-4.49v2.81h13.75c-0.14-10.52,0.14-21.46-0.14-31.7H98.05
		c-0.7,7.86,2.1,19.5-3.09,22.86c-3.51,2.38-9.68,1.68-12.06-1.54c-1.54-2.1-1.82-5.89-1.82-9.96v-11.22H67.47
		c-0.14,0-0.14,0.28-0.14,0.42C68.03,220.23,65.65,231.31,68.45,237.62 M149.39,274.94c2.1,2.81,7.15,1.96,10.94,1.12v-4.63
		c-4.49,0.84-1.68-8.56-2.52-12.2h2.1c0-1.68,0.14-4.07-0.14-5.05c-0.56-0.14-1.54,0.14-1.96-0.14v-4.77h-9.82v4.91h-2.1
		c0.14,0.84,0,3.79,0,5.05c0.7,0.14,1.96-0.28,2.38,0.14C148.83,264.42,147.29,272.13,149.39,274.94 M211.95,275.64v-7.43
		c0-2.38-0.56-5.61,0.28-7.29c1.4-3.09,8-2.52,7.86,1.96h8.84c0.98-6.59-3.23-10.94-9.12-10.52c-3.37,0.28-5.61,2.24-7.86,3.51
		v-2.38h-9.12c0.14,7.43-0.14,15.15,0.14,22.3C204.94,275.64,209.01,275.78,211.95,275.64 M103.38,261.19
		c-0.56-5.89-6.45-8.84-12.48-8.56c-4.07,0.14-6.87,1.68-9.96,2.95c-1.96-1.26-4.77-2.52-8-2.81c-4.49-0.28-8.84,0.98-11.78,2.38
		c-0.14-0.56,0.42-1.68-0.28-1.82H52.6v22.3c2.52,0.42,6.31,0,8.7,0.14c0.7-4.63-0.98-9.4,0.28-13.05
		c1.54-4.35,9.26-4.63,11.22-0.28c1.54,3.51-0.28,9.12,0.56,13.33c2.38,0,7.57,0.14,9.26-0.14v-6.45c0-2.1-0.42-4.49,0.14-6.31
		c1.4-4.91,9.82-4.35,11.36-0.28c1.12,3.23-0.28,8.56,0.28,13.05c2.24,0.28,6.59,0,9.12,0.14
		C103.1,270.45,103.8,265.4,103.38,261.19 M242.53,290.51h1.68v-4.07c-0.42-0.14-1.26,0.14-1.54-0.14v-3.65
		c-1.82-0.28-6.45-0.28-7.86,0v3.79h-1.68c0,0.98-0.14,3.51,0.14,4.07c0.56,0.14,1.54-0.14,1.82,0.14c0.7,4.35-1.26,9.82,0.7,12.62
		c1.68,2.38,5.75,1.68,8.84,0.84c0.14-0.84,0.14-2.24,0.14-3.51C241.13,300.75,243.09,294.01,242.53,290.51 M132.98,292.19
		c-2.52-0.14-9.12,0.98-8.98-1.96c0-1.54,3.23-2.1,5.47-1.4c0.84,0.14,1.12,0.84,1.82,0.98c2.67,0.7,6.17-0.42,8.7,0
		c-0.42-2.81-2.81-3.79-5.19-4.49c-5.47-1.54-15.57-1.12-17.96,2.24c-1.12,1.68-0.98,4.49-0.28,5.75c1.54,2.67,5.19,2.81,9.4,3.23
		c1.54,0.14,6.17,0.42,6.31,1.96c0.14,1.96-4.21,1.96-5.61,1.4c-0.98-0.28-1.4-1.12-2.24-1.26c-1.4-0.42-3.09,0-4.49,0
		c-1.54,0-2.95-0.14-4.35,0.14c1.68,4.21,6.03,5.75,12.2,6.17c6.03,0.42,13.61-1.12,13.61-6.87
		C141.26,294.01,136.91,292.47,132.98,292.19 M222.19,284.62c-2.81,0.28-4.63,1.82-6.45,2.81v-1.96h-7.57
		c-0.28,5.33,0,12.48-0.14,18.52h7.72v-6.17c0-2.1-0.42-4.49,0.14-6.03c0.98-2.81,6.73-2.24,6.73,1.54
		c2.52-0.14,5.33,0.14,7.43-0.14C230.61,287.7,227.24,284.2,222.19,284.62 M101.98,288.68c-0.84-0.42-1.96-0.14-2.38,0.42
		c-0.14-0.42-0.42-0.56-1.12-0.42c0,1.4,0,3.37,0,4.77c0,0.42-0.28,1.26,0.28,1.4h0.42c0.7-1.82-0.98-5.89,1.96-5.47
		c0.7,1.26,0.14,3.79,0.28,5.47h0.98C102.4,292.75,103.1,289.95,101.98,288.68 M96.23,288.68c-0.7,1.26,1.12,5.89-1.82,5.47
		c-0.7-1.26-0.14-3.79-0.28-5.47h-0.84c0.14,1.96-0.14,4.21,0.14,5.75c0.7,0.7,2.24,0.42,2.81-0.14c-0.42,0.42,0.28,0.56,0.7,0.42
		c0.28-0.84,0.14-2.24,0.14-3.51C97.07,290.09,97.49,288.54,96.23,288.68 M170.29,244.36c6.73-0.14,14.03-1.4,18.1-4.49
		c4.77-3.51,6.45-9.68,5.75-15.99c-0.56-5.75-4.21-9.68-7.57-11.64c-5.05-2.95-12.2-3.79-20.34-3.23c-2.52,0.14-4.91,0.42-7.15,1.12
		c-4.63,1.12-8.28,2.81-10.8,5.61c-3.79,4.49-4.63,13.33-1.68,19.08C150.37,242.25,159.63,244.5,170.29,244.36 M163.42,220.65
		c1.12-0.84,2.52-1.26,4.35-1.54c2.24-0.28,5.61,0,7.57,1.12c3.23,1.96,4.35,7.72,1.68,11.08c-2.81,3.51-11.78,3.51-14.87,0
		C159.63,228.37,160.61,222.61,163.42,220.65 M59.06,239.73c-0.14-1.54-0.14-3.37-0.14-5.19c0-1.68-0.14-3.37-0.14-5.05
		c-0.14-3.51,0.14-7.15-0.14-10.1c-0.84-9.68-13.75-11.22-23.99-10.66c-8,0.42-15.71,1.82-19.08,7.01c-0.7,1.12-1.12,2.95-1.12,4.63
		h14.73c0.7-0.56,1.12-1.4,2.1-1.82c4.21-1.82,13.61-2.1,13.61,3.51c-11.08,1.54-25.39-0.56-31.14,6.17
		c-0.56,0.7-1.26,1.96-1.4,2.67c-3.65,14.17,19.36,16.13,29.74,11.08c1.12-0.56,1.96-1.54,2.95-2.1c0.42,0.98,0.42,2.24,1.4,2.81
		h14.03C60.04,241.83,59.2,240.85,59.06,239.73 M35.49,236.36c-3.79,0.28-8.14-0.14-7.72-3.79c0.56-4.91,11.5-3.93,16.97-3.93
		C44.89,233.98,40.4,235.94,35.49,236.36 M124.28,252.91c-3.51,0.28-6.73,0.7-9.12,1.68c-1.4,0.56-3.23,1.82-4.07,2.81
		c-3.23,3.93-2.95,11.78,0.14,15.29c2.81,3.23,8.28,4.35,14.31,4.35c6.87-0.14,12.91-1.54,15.29-5.89s1.68-10.52-1.12-13.75
		C137.05,254.32,131.16,252.49,124.28,252.91 M130.45,268.2c-1.68,1.96-6.73,2.24-9.12,0.56c-2.1-1.4-2.38-5.47-0.56-7.43
		c0.7-0.84,1.54-1.12,3.09-1.54c3.23-0.56,6.59,0.42,7.43,2.81C131.86,264.28,131.58,266.8,130.45,268.2 M179.69,252.91
		c-6.31,0.42-11.92,2.1-14.17,6.31c-1.68,3.37-1.4,8.56,0.14,11.64c2.38,4.49,8.14,6.17,14.73,6.17c7.29,0,13.61-1.54,16.13-6.17
		c1.68-3.23,1.68-8.7,0-11.78c-0.98-1.68-2.52-3.09-3.93-3.93C189.51,253.19,184.6,252.63,179.69,252.91 M186.28,267.92
		c-2.1,2.95-9.4,2.24-10.8-0.7c-1.68-3.93,0.98-6.87,3.93-7.29c3.09-0.42,5.75,0.42,6.87,1.82
		C187.55,263.29,187.55,266.1,186.28,267.92 M107.17,289.1c-4.49-3.65-4.21,9.12,0,5.05c-0.28,0.7,0.42,0.56,0.84,0.56v-8.42h-0.84
		V289.1z M105.91,294.29c-1.54,0-1.96-4.91,0.42-4.91C107.45,290.09,107.59,294.29,105.91,294.29 M161.32,284.62
		c-1.68-0.14-3.79,0-5.61,0.7c-0.98,0.42-1.96,1.4-2.81,1.68c-0.14-0.42,0.28-1.4-0.28-1.4h-7.01v23.15h7.29v-6.45
		c2.24,1.54,4.21,2.38,7.15,2.52c6.31,0.42,11.36-3.09,12.2-8.84C173.38,289.53,167.91,285.04,161.32,284.62 M153.32,296.82
		c-1.4-3.51,1.12-6.45,4.35-6.87c3.09-0.42,6.31,1.4,6.45,4.63C164.4,300.61,155.42,301.59,153.32,296.82 M188.11,284.9
		c-5.61,0.42-9.4,2.1-11.08,5.05c-2.1,3.93-0.84,8.56,0.42,10.38c3.37,5.19,16.83,5.89,22.58,2.38c3.09-1.96,5.19-7.15,3.23-11.92
		C201.43,286.16,195.82,284.2,188.11,284.9 M193.44,298.08c-1.82,1.26-6.17,1.12-7.57-0.56c-1.26-1.4-0.98-4.35,0-5.61
		c0.7-0.84,1.68-1.12,2.67-1.4c3.09-0.56,5.89,0.42,6.45,2.67C195.26,294.86,194.98,297.1,193.44,298.08"/>
	<path id="XMLID_61_" class="st1" d="M258.24,196.94c0.14,39-0.14,80.8,0.14,118.53h250.25V196.38H258.38
		C258.24,196.52,258.24,196.8,258.24,196.94"/>
	<path id="XMLID_70_" class="st0" d="M289.1,250.67c0.7,0.42,0.98,0.98,1.4,1.68s0.7,1.4,1.12,1.96c2.24-0.84,4.35-1.82,6.73-2.52
		c-1.4-5.61-5.89-8.84-13.05-8.14c-3.65,0.42-6.87,2.52-8.7,5.33c-3.51,5.61-2.95,15.85,2.52,20.34c1.4,1.26,3.79,2.24,6.17,2.38
		c6.31,0.56,11.22-2.38,13.05-7.01c-2.1-1.26-4.21-2.24-6.45-3.51c-0.98,1.68-1.4,3.09-2.95,3.65c-7.01,2.81-8.28-10.52-4.35-13.75
		C285.88,250.11,287.84,249.83,289.1,250.67 M322.63,253.9l-8.42-0.14v-9.68h-7.43c0-0.28-0.42,0.14-0.28,0.28v26.93
		c1.96,0.14,5.75,0,7.72,0v-10.8c2.24,0.14,6.59-0.14,8.56,0.14v10.66h7.57v-27.21h-7.57C322.63,247.3,322.63,253.9,322.63,253.9
		 M355.59,244.08c-1.96,0-5.19,0-7.57,0c-3.09,9.26-6.59,17.96-9.68,27.21c2.52,0.14,8,0.14,8,0.14l1.68-4.91l8,0.14l1.26,4.63
		l8.28,0.14c0,0-6.59-18.1-9.68-27.35H355.59z M349.7,260.49c0.56-2.81,1.54-5.33,2.1-8.14c0.7,2.67,1.4,5.47,2.24,8.14H349.7z
		 M389.4,244.08v14.17l-10.1-14.17h-6.45v27.21c1.82,0,5.89,0,7.15,0c-0.14-4.91,0.14-10.8-0.14-15.15
		c2.67,3.93,5.33,7.86,7.86,11.5c0.98,1.26,1.96,2.52,3.09,3.51c1.4,0,4.49,0,5.89,0v-27.21
		C394.31,244.08,389.4,244.08,389.4,244.08 M422.93,258.24c-1.54-2.52-3.23-4.91-4.91-7.29c-1.82-2.38-3.51-4.77-5.33-6.87h-6.31
		c0-0.14-0.14-0.14-0.28,0v27.21c1.82,0,5.47,0,7.29,0c0-5.05,0.14-10.52-0.14-14.87c1.68,2.67,3.51,5.05,5.33,7.57
		c1.82,2.52,3.37,5.33,5.47,7.43c1.12-0.28,4.63,0,6.03-0.14v-27.21h-7.29C422.93,248.85,422.65,253.76,422.93,258.24 M489.14,264.7
		c-3.93-0.14-8.42,0.14-12.06-0.14c0.14-6.73-0.14-13.89,0.14-20.48c-2.1,0-4.91,0-7.43,0c0-0.28-0.42,0.14-0.28,0.28v26.93
		c6.03,0,13.33,0,19.78,0C489.14,269.61,489.14,266.8,489.14,264.7 M447.19,260.35h7.86v-6.45h-8c0.14-1.12-0.14-2.67,0.14-3.65
		h13.33v-6.31h-20.76c-0.42,8.84,0,18.24-0.14,27.21h21.18v-6.31h-13.75C447.19,263.43,446.77,261.61,447.19,260.35"/>
</g>
</svg>
